<svg width="56" height="12" viewBox="0 0 56 12" fill="none" xmlns="http://www.w3.org/2000/svg">
<path d="M14.3157 3.06006C14.3157 0.995234 11.9606 0 9.16893 0C6.18049 0 3.43188 1.23546 2.42958 3.14585C2.15288 3.65491 2.0053 4.21544 2.0053 4.78742C1.993 5.28503 2.14058 5.77121 2.42958 6.18303C2.86002 6.77788 3.6348 7.14967 4.76007 7.14967C6.14975 7.14967 7.24427 6.44042 7.24427 5.21068C7.24427 5.21068 7.26272 4.86749 6.83229 4.86749C6.4818 4.86749 6.38956 5.09628 6.40186 5.21068C6.45105 6.17731 5.83615 6.94948 4.73547 6.94948C3.49952 6.94948 2.98914 5.97712 2.98914 4.93041C2.98914 2.79695 4.71703 1.38418 6.51255 0.772164C7.35496 0.474738 8.24042 0.331745 9.14433 0.343184C11.1797 0.343184 12.8461 1.06959 12.8461 3.02002C12.8461 4.64442 11.3764 6.0286 9.61781 6.15443L9.69159 5.93708C10.0544 4.74166 10.491 3.43184 11.2104 2.4652C11.2534 2.40801 11.3211 2.31077 11.4072 2.21926L11.3026 2.10486C11.1489 2.19066 11.0075 2.28789 10.8599 2.39085C7.49024 4.83889 7.38571 11.7197 2.89691 11.7197C2.74318 11.7197 2.58946 11.7083 2.43573 11.6911C1.50108 11.5481 1.00916 10.9647 1.00916 10.1525C1.00916 9.99237 1.07065 9.7693 1.07065 9.64347C1.08295 9.41468 0.873874 9.21449 0.627912 9.21449H0.578724C0.179037 9.21449 0.0130115 9.51191 0.000713443 9.92946C-0.0300317 11.142 0.935369 11.8513 2.42344 11.9828C2.58946 11.9943 2.74933 12 2.92765 12C6.4326 12 8.57862 9.5348 9.49483 6.54338C9.95601 6.49762 10.4172 6.40038 10.8599 6.27455C12.4833 5.86273 14.3157 4.85033 14.3157 3.06006Z" fill="white"/>
<path d="M47.6927 3.78073H46.4567L46.18 4.3813L45.6942 5.3937H45.1162L44.9441 5.73688H45.5405L44.8211 7.21829C44.3046 8.25928 43.5052 9.28311 43.044 9.28311C42.9395 9.28311 42.878 9.24308 42.878 9.15156C42.878 9.05433 42.9087 8.96853 43.0194 8.6997C43.1608 8.38512 43.4006 7.92754 43.5728 7.59008C43.8311 7.1039 44.2431 6.34889 44.2431 5.97711C44.2431 5.60533 43.9848 5.3079 43.4806 5.3079C42.9149 5.3079 42.4045 5.62249 41.931 6.08006L42.2385 5.3937H41.0825L40.1355 7.40132C39.7543 8.11057 38.9856 9.28311 38.4999 9.28311C38.3953 9.28311 38.3584 9.22592 38.3584 9.12868C38.3707 9.04289 38.3892 8.96853 38.4322 8.88273C38.4753 8.79694 39.041 7.56148 39.041 7.56148L40.0679 5.37082H38.8135L37.8173 7.50428C37.5099 8.16205 36.7289 9.28311 36.2247 9.28311C36.1448 9.29455 36.0587 9.23736 36.0525 9.15156V9.11152C36.0525 8.99713 36.1448 8.7855 36.2186 8.63107L36.7412 7.56148L37.8173 5.37082H36.5752L36.3292 5.86843C36.1448 6.20018 35.8373 6.59484 35.3454 6.59484C35.1117 6.59484 34.9949 6.50904 34.9457 6.42325C34.8719 5.6854 34.3677 5.29646 33.6298 5.29646C32.6029 5.29646 31.8712 5.86272 31.3916 6.54908C31.0718 7.02954 30.8259 7.53288 30.6537 8.07053C30.211 8.75118 29.7498 9.2774 29.3808 9.2774C29.2886 9.2774 29.2271 9.23164 29.2271 9.11724C29.2271 9.00285 29.3501 8.74546 29.3931 8.64823L30.2048 7.04098C30.4323 6.54336 30.5861 6.21734 30.5861 5.89131C30.5861 5.54813 30.3278 5.29646 29.9097 5.29646C29.3255 5.29646 28.686 5.61105 28.1818 6.12582C28.2002 6.04003 28.2002 5.96567 28.2002 5.87987C28.2002 5.49665 27.9973 5.29646 27.573 5.29646C27.0381 5.29646 26.4846 5.59389 25.9804 6.12582L26.3063 5.38226H25.1749L24.2218 7.38988C23.7668 8.33364 23.0412 9.27167 22.6292 9.27167C22.537 9.27167 22.4755 9.22592 22.4755 9.11152C22.4755 8.92849 22.6907 8.48235 22.7706 8.29932L24.0373 5.63393C24.1296 5.43374 23.5208 5.3079 22.7522 5.3079C21.959 5.3079 21.1473 5.67396 20.5508 6.13726C20.1265 6.46329 19.8191 6.62344 19.6654 6.62344C19.5854 6.62344 19.5547 6.5834 19.5547 6.53764C19.5547 6.37749 19.979 5.91419 19.979 5.56529C19.979 5.40514 19.8867 5.29646 19.6469 5.29646C19.198 5.29646 18.6631 5.69684 18.2695 6.1201L18.5954 5.38226H17.4886L16.5355 7.38988C16.0805 8.33364 15.3303 9.32315 14.9245 9.32315C14.8322 9.32315 14.7707 9.2774 14.7707 9.163C14.7707 8.97997 14.9736 8.53955 15.0905 8.31076L16.3572 5.63393C16.4494 5.43374 15.8407 5.3079 15.072 5.3079C13.9283 5.3079 12.8215 6.02287 12.2373 6.76071C11.5917 7.55576 11.1489 8.39656 11.1366 9.08292C11.1243 9.63774 11.4318 9.98092 12.0529 9.98092C12.7415 9.98092 13.295 9.47187 13.6147 9.09436C13.5963 9.16872 13.584 9.2488 13.5717 9.32315C13.5717 9.70638 13.7377 9.98092 14.2419 9.98092C14.6846 9.98092 15.2688 9.63774 15.7423 9.09436L15.361 9.90657H16.5601L17.7407 7.41276C18.1343 6.60056 18.5708 6.1773 18.6938 6.1773C18.7369 6.1773 18.7553 6.19446 18.7553 6.22306C18.7553 6.30885 18.5708 6.53764 18.5708 6.74927C18.5708 6.9609 18.6938 7.12106 19.0259 7.12106C19.2841 7.12106 19.5731 7.00666 19.8252 6.85223C19.2165 7.61867 18.8106 8.41944 18.8106 9.07721C18.7983 9.63202 19.1058 9.9752 19.7268 9.9752C20.3725 9.9752 20.9813 9.40323 21.3072 9.02001C21.2949 9.1058 21.2887 9.1916 21.2887 9.28884C21.2887 9.66062 21.5162 9.9752 21.9774 9.9752C22.4939 9.9752 22.8998 9.67778 23.4163 9.09436L23.035 9.89513H24.271L25.4024 7.51572C25.8943 6.48617 26.5646 5.93135 26.8905 5.93135C26.9704 5.91991 27.0442 5.97711 27.0565 6.05719V6.08579C27.0442 6.20018 27.0073 6.31457 26.952 6.41753L25.3286 9.90657H26.5953L27.7452 7.47568C28.2371 6.43469 28.7844 5.92563 29.1964 5.92563C29.3193 5.92563 29.3685 5.98283 29.3685 6.10866C29.3562 6.24022 29.3193 6.37749 29.2579 6.49189L28.1449 8.68826C28.0403 8.89989 27.9789 9.12868 27.9604 9.35747C27.9604 9.68922 28.1572 9.98664 28.7106 9.98664C29.43 9.98664 29.9773 9.47759 30.5922 8.72258V8.88273C30.6414 9.48331 31.0042 10.0095 31.9573 10.0095C33.0887 10.0095 34.0049 9.28311 34.5583 8.12773C34.7612 7.71591 34.9088 7.28693 34.958 6.83507C35.081 6.89227 35.2224 6.92087 35.3577 6.90943C35.5422 6.90943 35.7266 6.86939 35.8927 6.78359L35.6959 7.17825C35.4684 7.61867 35.2224 8.10485 35.0257 8.51667C34.9027 8.7569 34.8289 9.02573 34.8104 9.28884C34.8104 9.70066 35.0564 9.99808 35.5606 9.99808C36.0648 9.99808 36.7535 9.55766 37.2455 8.93421H37.2578C37.227 9.06005 37.2086 9.1916 37.2086 9.32887C37.2086 9.67206 37.3192 9.99808 37.8358 9.99808C38.4322 9.99808 38.8934 9.5977 39.3484 9.08865L38.9672 9.88941H40.2093L41.2054 7.78454C41.7711 6.60056 42.3369 5.87987 42.8595 5.87987C42.9518 5.87987 43.0256 5.93707 43.0317 6.02287V6.05147C43.0317 6.25166 42.7242 6.79503 42.4475 7.34413C42.1893 7.84174 41.9925 8.22497 41.8634 8.52239C41.7404 8.76834 41.6666 9.03717 41.6482 9.31744C41.6482 9.67778 41.8634 9.95804 42.3492 9.95804C43.0686 9.95804 43.8003 9.306 44.1877 8.81982C44.0955 9.06005 44.0524 9.30028 44.0463 9.54622C44.0463 10.2154 44.4767 10.5529 45.0855 10.5529C45.4852 10.5529 45.8787 10.4271 46.2046 10.2097C46.6781 9.90085 47.0593 9.44327 47.3791 9.02573L47.1639 8.83698C46.8687 9.23164 46.5367 9.60342 46.1985 9.83221C46.014 9.9752 45.7988 10.0496 45.559 10.061C45.3007 10.061 45.1347 9.93517 45.1347 9.63202C45.1347 9.32316 45.2884 8.91705 45.5282 8.36224C45.5405 8.3508 45.8787 7.64727 46.1985 6.96662C46.4629 6.39465 46.7334 5.83984 46.7826 5.72544H47.5943L47.7603 5.38226H46.9609L47.6927 3.78073ZM12.637 9.29456C12.4648 9.29456 12.3419 9.23736 12.3419 9.02573C12.3542 8.45947 12.8584 7.45852 13.4856 6.65776C13.9283 6.10295 14.5002 5.69112 15.1212 5.69112L14.3403 7.31553C13.75 8.53955 13.1105 9.29456 12.637 9.29456ZM20.3233 9.29456C20.1511 9.29456 20.0282 9.23736 20.0159 9.02573C20.0282 8.45947 20.5324 7.45852 21.1596 6.65776C21.6023 6.10295 22.1742 5.69112 22.7952 5.69112L22.0143 7.31553C21.4117 8.56815 20.8091 9.29456 20.3233 9.29456ZM33.9742 6.13154C33.9434 6.75499 33.3593 8.25356 32.6706 9.15156C32.3939 9.5119 32.1541 9.62058 31.9511 9.62058C31.6621 9.62058 31.5822 9.40323 31.6252 9.07721C31.6867 8.51095 32.191 7.19541 32.8919 6.28598C33.2117 5.87416 33.4269 5.70256 33.6729 5.70256C33.9065 5.70256 33.9803 5.89131 33.9742 6.13154Z" fill="white"/>
<path d="M53.153 5.39372L54.2844 2.96283H52.9439L51.8125 5.39372H48.9655L48.492 6.41183H51.339L50.2076 8.84844H51.5419L52.6733 6.41183H55.5265L56 5.39372H53.153Z" fill="white"/>
</svg>
